<?xml version="1.0" encoding="UTF-8"?>
<!DOCTYPE svg PUBLIC "-//W3C//DTD SVG 1.1//EN" "http://www.w3.org/Graphics/SVG/1.1/DTD/svg11.dtd">
<svg xmlns="http://www.w3.org/2000/svg" version="1.1" width="300px" height="300px" style="shape-rendering:geometricPrecision; text-rendering:geometricPrecision; image-rendering:optimizeQuality; fill-rule:evenodd; clip-rule:evenodd" xmlns:xlink="http://www.w3.org/1999/xlink">
<g><path style="opacity:0.973" fill="#fefffe" d="M 149.5,34.5 C 150.721,35.0283 151.887,35.695 153,36.5C 160.099,47.9293 166.766,59.596 173,71.5C 173.667,73.1667 173.667,74.8333 173,76.5C 142.568,124.37 112.402,172.37 82.5,220.5C 83.1887,222.353 84.522,223.519 86.5,224C 125.5,224.333 164.5,224.667 203.5,225C 210.047,235.925 216.214,247.092 222,258.5C 222.781,259.944 222.614,261.277 221.5,262.5C 150.541,263.663 79.5405,263.83 8.5,263C 7.97814,262.439 7.6448,261.772 7.5,261C 8.54129,257.623 10.0413,254.456 12,251.5C 55.2504,182.668 98.2504,113.668 141,44.5C 143.163,40.4462 145.997,37.1128 149.5,34.5 Z"/></g>
<g><path style="opacity:0.967" fill="#fefffe" d="M 181.5,88.5 C 183.484,88.3832 185.15,89.0499 186.5,90.5C 221.778,146.948 256.445,203.781 290.5,261C 290.355,261.772 290.022,262.439 289.5,263C 273.5,263.667 257.5,263.667 241.5,263C 230.635,245.446 220.135,227.613 210,209.5C 209.021,207.68 207.521,206.513 205.5,206C 174.595,205.829 143.762,205.329 113,204.5C 112.333,202.5 112.333,200.5 113,198.5C 125.011,180.47 137.011,162.47 149,144.5C 150.261,144.759 151.261,145.426 152,146.5C 154.93,152.707 158.597,158.374 163,163.5C 169.018,166.264 174.852,166.097 180.5,163C 172.407,152.144 165.074,140.811 158.5,129C 166.038,115.423 173.705,101.923 181.5,88.5 Z"/></g>
</svg>
